<?xml version="1.0" encoding="UTF-8" standalone="no"?>
<svg
   id="Calque_1"
   data-name="Calque 1"
   viewBox="0 0 800.00001 800"
   version="1.1"
   sodipodi:docname="nolej.svg"
   width="800"
   height="800"
   inkscape:version="1.3.2 (091e20e, 2023-11-25, custom)"
   xmlns:inkscape="http://www.inkscape.org/namespaces/inkscape"
   xmlns:sodipodi="http://sodipodi.sourceforge.net/DTD/sodipodi-0.dtd"
   xmlns="http://www.w3.org/2000/svg"
   xmlns:svg="http://www.w3.org/2000/svg">
  <sodipodi:namedview
     id="namedview4"
     pagecolor="#ffffff"
     bordercolor="#000000"
     borderopacity="0.25"
     inkscape:showpageshadow="2"
     inkscape:pageopacity="0.0"
     inkscape:pagecheckerboard="0"
     inkscape:deskcolor="#d1d1d1"
     inkscape:zoom="1.0861111"
     inkscape:cx="315.80563"
     inkscape:cy="427.67263"
     inkscape:window-width="2560"
     inkscape:window-height="1369"
     inkscape:window-x="-8"
     inkscape:window-y="-8"
     inkscape:window-maximized="1"
     inkscape:current-layer="Calque_1" />
  <defs
     id="defs1">
    <style
       id="style1">
      .cls-1 {
        fill: none;
      }

      .cls-1, .cls-2, .cls-3 {
        stroke-width: 0px;
      }

      .cls-2 {
        fill: #071424;
      }

      .cls-3 {
        fill: #00cb63;
      }
    </style>
  </defs>
  <rect
     class="cls-1"
     x="-265.23001"
     y="-264.85999"
     width="1163.62"
     height="1090.8"
     id="rect1" />
  <g
     id="g4"
     transform="translate(-174.39,-140.13)">
    <path
       class="cls-2"
       d="m 259.47,495.49 c 0,-74.59 57.22,-134.87 129.76,-134.87 h 0.51 c 72.54,0 128.74,60.8 128.74,134.87 0,74.07 -56.2,134.87 -128.74,134.87 h -0.51 c -72.54,0 -129.76,-60.28 -129.76,-134.87 z m 130.27,74.59 c 38.83,0 67.95,-33.72 67.95,-74.59 0,-40.87 -29.12,-74.59 -67.95,-74.59 h -0.51 c -39.34,0 -68.46,33.72 -68.46,74.59 0,40.87 29.12,74.59 68.46,74.59 z"
       id="path1" />
    <path
       class="cls-2"
       d="M 619.99,627.29 H 559.2 V 259.46 h 60.79 z"
       id="path2" />
    <path
       class="cls-2"
       d="m 776.07,531.56 c -41,0 -82.01,-15.61 -113.22,-46.82 l 40.03,-40.03 c 40.36,40.36 106.04,40.36 146.4,0 l 40.03,40.03 c -31.22,31.21 -72.22,46.82 -113.22,46.82 z"
       id="path3" />
    <path
       class="cls-3"
       d="m 589.59,820.8 c -89.25,0 -167.9,-53.74 -200.38,-136.9 l 52.87,-20.65 c 23.91,61.23 81.81,100.79 147.51,100.79 65.7,0 123.59,-39.56 147.51,-100.79 l 52.87,20.65 C 757.49,767.06 678.84,820.8 589.59,820.8 Z"
       id="path4" />
  </g>
</svg>
